<svg xmlns="http://www.w3.org/2000/svg" viewBox="0 0 64 64" role="img" aria-label="RetoCert">
  <defs>
    <linearGradient id="rc-bg" x1="0" y1="0" x2="1" y2="1">
      <stop offset="0%" stop-color="#2563eb" />
      <stop offset="100%" stop-color="#0ea5e9" />
    </linearGradient>
  </defs>

  <rect width="64" height="64" rx="14" fill="url(#rc-bg)" />

  <path
    d="M32 10 48 16v12c0 11-7.2 20.1-16 24-8.8-3.9-16-13-16-24V16L32 10Z"
    fill="#ffffff"
    opacity="0.95"
  />

  <path
    d="M32 18c-4.8 0-8.6 3-8.6 7h4.7c0-1.4 1.6-2.4 3.9-2.4s3.9 1 3.9 2.4c0 1.2-.9 2-2.8 2.8-2.4 1.1-4.4 2.6-4.4 5.4v1h4.7v-.7c0-1.3.8-2 2.8-2.9 2.4-1.1 4.4-2.8 4.4-5.8 0-4-3.8-6.8-8.6-6.8Z"
    fill="#1e3a8a"
  />

  <path d="m26 41 4.2 4.2L39 36.4" fill="none" stroke="#16a34a" stroke-width="3" stroke-linecap="round" stroke-linejoin="round" />
</svg>
